<svg width="12" height="12" viewBox="0 0 12 12" fill="none" xmlns="http://www.w3.org/2000/svg">
<path d="M6 0C2.68406 0 0 2.68352 0 6C0 9.31594 2.68352 12 6 12C7.16502 12 8.30666 11.6579 9.276 11.0269C9.56644 10.8378 9.62983 10.4392 9.41032 10.1711L9.1641 9.87029C8.97852 9.64357 8.65171 9.58802 8.40508 9.7462C7.69161 10.2038 6.85437 10.4516 6 10.4516C3.54537 10.4516 1.54839 8.45463 1.54839 6C1.54839 3.54537 3.54537 1.54839 6 1.54839C8.42272 1.54839 10.4516 2.9424 10.4516 5.41935C10.4516 6.35773 9.9413 7.3486 9.04427 7.44419C8.62454 7.4332 8.63516 7.13313 8.71824 6.7178L9.28517 3.78772C9.35451 3.42944 9.08003 3.09677 8.71512 3.09677H7.62687C7.54652 3.09677 7.46898 3.12635 7.40904 3.17987C7.34911 3.23338 7.31097 3.30709 7.3019 3.38693L7.30166 3.38915C6.94609 2.95606 6.32308 2.86234 5.85075 2.86234C4.04639 2.86234 2.51613 4.368 2.51613 6.52669C2.51613 8.1066 3.40609 9.08806 4.83871 9.08806C5.49155 9.08806 6.22667 8.70975 6.65301 8.16065C6.88338 8.98575 7.63558 8.98573 8.36373 8.98573C10.9986 8.98573 12 7.25318 12 5.41935C12 2.12064 9.33927 0 6 0ZM5.47548 7.36524C4.9372 7.36524 4.60282 6.98727 4.60282 6.37885C4.60282 5.29031 5.34748 4.61927 6.02129 4.61927C6.56061 4.61927 6.8826 4.98801 6.8826 5.60564C6.8826 6.69583 6.06305 7.36524 5.47548 7.36524Z" fill="#FF0087"/>
</svg>
