<svg width="14" height="14" viewBox="0 0 14 14" fill="none" xmlns="http://www.w3.org/2000/svg">
<path d="M8.38259 9.04975L8.10431 8.99725L7.91618 9.2089L7.2596 9.94757C7.24495 9.96406 7.22696 9.97725 7.20684 9.98629C7.18671 9.99533 7.1649 10 7.14283 10H7.14282H6.125H5.625V10.5V11.5938C5.625 11.68 5.55505 11.75 5.46875 11.75H4.375H3.875V12.25V13.3438C3.875 13.43 3.80505 13.5 3.71875 13.5H0.65625C0.569951 13.5 0.5 13.43 0.5 13.3438V11.2093C0.5 11.1679 0.516453 11.1282 0.545753 11.0988C0.545766 11.0988 0.545779 11.0988 0.545792 11.0988L4.97003 6.67455L5.18775 6.45683L5.09132 6.16441C4.95122 5.73957 4.875 5.28536 4.875 4.8125C4.875 2.43078 6.80575 0.500024 9.18748 0.5C11.577 0.499976 13.5 2.42292 13.5 4.81253C13.5 7.19425 11.5692 9.125 9.1875 9.125C8.91234 9.125 8.64341 9.09896 8.38259 9.04975ZM8.6875 3.5C8.6875 4.50102 9.49897 5.3125 10.5 5.3125C11.501 5.3125 12.3125 4.50102 12.3125 3.5C12.3125 2.49897 11.501 1.6875 10.5 1.6875C9.49897 1.6875 8.6875 2.49897 8.6875 3.5Z" stroke="#FF0087"/>
</svg>
