<svg width="11" height="16" viewBox="0 0 11 16" fill="none" xmlns="http://www.w3.org/2000/svg">
<path d="M9 0H2C1.17188 0 0.5 0.671875 0.5 1.5V14.5C0.5 15.3281 1.17188 16 2 16H9C9.82812 16 10.5 15.3281 10.5 14.5V1.5C10.5 0.671875 9.82812 0 9 0ZM5.5 15C4.94688 15 4.5 14.5531 4.5 14C4.5 13.4469 4.94688 13 5.5 13C6.05312 13 6.5 13.4469 6.5 14C6.5 14.5531 6.05312 15 5.5 15ZM9 11.625C9 11.8312 8.83125 12 8.625 12H2.375C2.16875 12 2 11.8312 2 11.625V1.875C2 1.66875 2.16875 1.5 2.375 1.5H8.625C8.83125 1.5 9 1.66875 9 1.875V11.625Z" fill="#FF0087"/>
</svg>
