<svg width="14" height="12" viewBox="0 0 14 12" fill="none" xmlns="http://www.w3.org/2000/svg">
<path d="M11.75 4.55V5.05H12.25H13.5V5.45H12.25H11.75V5.95V7.2H11.35V5.95V5.45H10.85H9.6V5.05H10.85H11.35V4.55V3.3H11.75V4.55ZM7.2 2.8C7.2 4.07042 6.17042 5.1 4.9 5.1C3.62958 5.1 2.6 4.07042 2.6 2.8C2.6 1.52958 3.62958 0.5 4.9 0.5C6.17042 0.5 7.2 1.52958 7.2 2.8ZM4.9 7.15C5.50382 7.15 6.07907 7.02357 6.60059 6.8H6.86C8.20698 6.8 9.3 7.89302 9.3 9.24V10.15C9.3 10.4535 9.05354 10.7 8.75 10.7H1.05C0.746455 10.7 0.5 10.4535 0.5 10.15V9.24C0.5 7.89302 1.59302 6.8 2.94 6.8H3.19976C3.72225 7.02331 4.29554 7.15 4.9 7.15Z" stroke="#FF0087"/>
</svg>
