<svg width="12" height="11" viewBox="0 0 12 11" fill="none" xmlns="http://www.w3.org/2000/svg">
<path d="M6 6.1875C7.70801 6.1875 9.09375 4.80176 9.09375 3.09375C9.09375 1.38574 7.70801 0 6 0C4.29199 0 2.90625 1.38574 2.90625 3.09375C2.90625 4.80176 4.29199 6.1875 6 6.1875ZM8.75 6.875H7.56621C7.08926 7.09414 6.55859 7.21875 6 7.21875C5.44141 7.21875 4.91289 7.09414 4.43379 6.875H3.25C1.73105 6.875 0.5 8.10605 0.5 9.625V9.96875C0.5 10.5381 0.961914 11 1.53125 11H10.4688C11.0381 11 11.5 10.5381 11.5 9.96875V9.625C11.5 8.10605 10.2689 6.875 8.75 6.875Z" fill="#FF0087"/>
</svg>
